<?xml version="1.0" encoding="UTF-8" standalone="no"?>
<!DOCTYPE svg PUBLIC "-//W3C//DTD SVG 1.1//EN" "http://www.w3.org/Graphics/SVG/1.1/DTD/svg11.dtd">
<svg width="100%" height="100%" viewBox="0 0 828 260" version="1.1" xmlns="http://www.w3.org/2000/svg" xmlns:xlink="http://www.w3.org/1999/xlink" xml:space="preserve" xmlns:serif="http://www.serif.com/" style="fill-rule:evenodd;clip-rule:evenodd;">
    <g transform="matrix(0.562942,0,0,0.562942,-23,-13.9335)">
        <rect id="rect9260" x="0" y="0" width="512" height="512" style="fill:none;"/>
        <g id="g4777">
            <path id="path9004" d="M391.641,209.785L390.069,210.056C390.069,210.056 367.855,212.864 360.651,219.368C357.756,221.983 355.693,225.923 354.686,229.474C354.183,231.249 353.941,232.922 354.074,234.374C354.154,235.223 354.466,236.005 354.933,236.67C353.608,238.526 352.456,240.512 351.681,242.793L351.69,242.792C351.691,242.803 351.678,242.813 351.674,242.822L354.01,243.582C354.023,243.542 354.047,243.51 354.06,243.472C354.895,241.709 356.089,239.841 357.085,238.269C359.816,239.743 363.349,240.323 367.125,240.002C371.427,239.637 375.999,238.142 379.82,235.384C387.88,228.075 390.819,219.18 391.644,209.783L391.641,209.785Z" style="fill:rgb(62,142,24);"/>
            <path id="path9006" d="M391.641,209.785L390.069,210.056C390.069,210.056 367.855,212.864 360.651,219.368C357.756,221.983 355.693,225.923 354.686,229.474C354.183,231.249 353.941,232.922 354.074,234.374C354.154,235.223 354.466,236.005 354.933,236.67C353.608,238.526 352.456,240.512 351.681,242.793L351.69,242.792C351.691,242.803 351.678,242.813 351.674,242.822L354.01,243.582C354.023,243.542 354.047,243.51 354.06,243.472C354.895,241.709 356.089,239.841 357.085,238.269C359.816,239.743 363.349,240.323 367.125,240.002C371.427,239.637 375.999,238.142 379.82,235.384C387.88,228.075 390.819,219.18 391.644,209.783L391.641,209.785ZM378.05,233.785C374.779,236.418 370.795,237.227 366.914,237.558C363.601,237.839 360.582,237.3 358.432,236.219C363.271,230.673 370.555,226.486 377.322,221.018C365.681,227.013 358.535,232.358 356.605,234.523C356.38,233.077 356.717,231.337 357.048,230.143C357.939,227.001 359.903,223.355 362.298,221.192C368.311,215.763 379.406,213.338 390.027,211.562C387.573,221.41 385.309,227.769 378.05,233.785Z" style="fill:rgb(57,25,16);"/>
            <path id="path9044" d="M462.786,196.669L462.225,198.162C462.225,198.162 455.312,219.459 447.575,225.319C444.465,227.674 440.208,228.964 436.532,229.288C434.694,229.451 433.005,229.376 431.604,228.974C430.785,228.736 430.075,228.283 429.509,227.7C427.438,228.654 425.271,229.415 422.885,229.749L422.886,229.739C422.876,229.735 422.866,229.751 422.854,229.748L422.544,227.311C422.585,227.306 422.621,227.288 422.662,227.283C424.549,226.792 426.609,225.968 428.338,225.284C427.401,222.326 427.492,218.747 428.514,215.097C429.678,210.94 432.002,206.728 435.425,203.49C444.113,196.94 453.401,195.717 462.786,196.664L462.786,196.669Z" style="fill:rgb(62,142,24);"/>
            <path id="path9046" d="M462.786,196.669L462.225,198.162C462.225,198.162 455.312,219.459 447.575,225.319C444.465,227.674 440.208,228.964 436.532,229.288C434.694,229.451 433.005,229.376 431.604,228.974C430.785,228.736 430.075,228.283 429.509,227.7C427.438,228.654 425.271,229.415 422.885,229.749L422.886,229.739C422.876,229.735 422.866,229.751 422.854,229.748L422.544,227.311C422.585,227.306 422.621,227.288 422.662,227.283C424.549,226.792 426.609,225.968 428.338,225.284C427.401,222.326 427.492,218.747 428.514,215.097C429.678,210.94 432.002,206.728 435.425,203.49C444.113,196.94 453.401,195.717 462.786,196.664L462.786,196.669ZM436.667,205.53C433.469,208.251 431.929,212.013 430.878,215.764C429.982,218.966 429.947,222.032 430.606,224.347C436.96,220.631 442.436,214.259 449.073,208.634C441.006,218.948 434.419,224.968 431.931,226.459C433.309,226.951 435.081,226.945 436.316,226.843C439.57,226.555 443.518,225.309 446.091,223.36C452.549,218.468 457.006,208.024 460.738,197.923C450.606,198.49 443.935,199.525 436.667,205.53Z" style="fill:rgb(57,25,16);"/>
            <path id="path9054" d="M430.343,224.717L431.331,227.17C430.817,228.809 425.138,228.61 411.347,237.756C400.176,245.166 386.859,246.97 373.842,247.125C360.825,247.279 347.939,245.681 337.314,245.661C326.689,245.642 319.306,246.557 315.184,252.135C314.16,251.326 312.994,250.396 311.753,249.6C317.173,242.265 326.284,241.375 337.322,241.395C348.36,241.414 361.163,243.008 373.792,242.858C386.421,242.708 396.668,242.849 409.026,234.392C425.681,224.426 430.343,224.717 430.343,224.717Z" style="fill:rgb(57,25,16);"/>
            <path id="path8996" d="M432.966,257.647L431.45,257.152C431.45,257.152 410.5,249.251 401.091,251.634C397.309,252.591 393.643,255.111 391.094,257.779C389.819,259.113 388.823,260.479 388.262,261.824C387.936,262.612 387.846,263.45 387.948,264.256C385.91,265.277 383.962,266.495 382.211,268.149L382.219,268.149C382.215,268.158 382.199,268.162 382.192,268.168L383.902,269.932C383.931,269.903 383.967,269.886 383.997,269.857C385.559,268.69 387.489,267.596 389.103,266.673C390.829,269.252 393.681,271.416 397.169,272.897C401.142,274.585 405.883,275.4 410.55,274.749C421.092,272.055 427.847,265.565 432.97,257.643L432.966,257.647Z" style="fill:rgb(62,142,24);"/>
            <path id="path8998" d="M432.966,257.647L431.45,257.152C431.45,257.152 410.5,249.251 401.091,251.634C397.309,252.591 393.643,255.111 391.094,257.779C389.819,259.113 388.823,260.479 388.262,261.824C387.936,262.612 387.846,263.45 387.948,264.256C385.91,265.277 383.962,266.495 382.211,268.149L382.219,268.149C382.215,268.158 382.199,268.162 382.192,268.168L383.902,269.932C383.931,269.903 383.967,269.886 383.997,269.857C385.559,268.69 387.489,267.596 389.103,266.673C390.829,269.252 393.681,271.416 397.169,272.897C401.142,274.585 405.883,275.4 410.55,274.749C421.092,272.055 427.847,265.565 432.97,257.643L432.966,257.647ZM409.734,272.511C405.611,273.31 401.711,272.163 398.125,270.641C395.065,269.341 392.649,267.453 391.252,265.493C398.123,262.852 406.519,262.555 415.057,260.884C401.964,260.743 393.149,262.127 390.43,263.139C390.907,261.756 392.018,260.375 392.87,259.475C395.126,257.113 398.566,254.808 401.694,254.016C409.548,252.027 420.489,255.069 430.709,258.463C423.937,266.022 418.963,270.586 409.734,272.511Z" style="fill:rgb(57,25,16);"/>
            <path id="path9000" d="M303.776,136.616L302.12,136.76C302.12,136.76 278.793,137.719 270.735,143.841C267.496,146.302 265.005,150.215 263.646,153.815C262.967,155.615 262.568,157.332 262.578,158.851C262.587,159.741 262.841,160.581 263.268,161.313C261.728,163.124 260.356,165.087 259.35,167.388L259.359,167.388C259.359,167.398 259.344,167.408 259.34,167.418L261.7,168.413C261.717,168.374 261.744,168.342 261.761,168.303C262.784,166.546 264.19,164.709 265.363,163.165C268.07,164.936 271.69,165.851 275.641,165.85C280.143,165.85 285.025,164.699 289.238,162.171C298.256,155.288 302.094,146.305 303.78,136.615L303.776,136.616Z" style="fill:rgb(62,142,24);"/>
            <path id="path9002" d="M303.776,136.616L302.12,136.76C302.12,136.76 278.793,137.719 270.735,143.841C267.496,146.302 265.005,150.215 263.646,153.815C262.967,155.615 262.568,157.332 262.578,158.851C262.587,159.741 262.841,160.581 263.268,161.313C261.728,163.124 260.356,165.087 259.35,167.388L259.359,167.388C259.359,167.398 259.344,167.408 259.34,167.418L261.7,168.413C261.717,168.374 261.744,168.342 261.761,168.303C262.784,166.546 264.19,164.709 265.363,163.165C268.07,164.936 271.69,165.851 275.641,165.85C280.143,165.85 285.025,164.699 289.238,162.171C298.256,155.288 302.094,146.305 303.78,136.615L303.776,136.616ZM287.541,160.353C283.91,162.8 279.7,163.29 275.638,163.291C272.171,163.291 269.082,162.465 266.943,161.153C272.46,155.817 280.397,152.109 287.91,147.025C275.286,152.227 267.391,157.15 265.195,159.23C265.088,157.708 265.592,155.929 266.042,154.718C267.244,151.532 269.605,147.917 272.285,145.881C279.011,140.771 290.751,139.23 301.943,138.32C298.526,148.335 295.613,154.743 287.541,160.353Z" style="fill:rgb(57,25,16);"/>
            <path id="path9012" d="M214.637,162.953L216.294,163.096C216.294,163.096 239.621,164.055 247.679,170.178C250.918,172.639 253.409,176.551 254.767,180.151C255.447,181.951 255.846,183.668 255.836,185.188C255.827,186.077 255.572,186.918 255.146,187.65C256.686,189.461 258.058,191.423 259.064,193.725L259.055,193.725C259.055,193.735 259.07,193.745 259.074,193.754L256.714,194.75C256.697,194.71 256.669,194.679 256.652,194.64C255.629,192.882 254.224,191.046 253.051,189.501C250.343,191.273 246.724,192.187 242.772,192.186C238.271,192.186 233.389,191.036 229.176,188.508C220.157,181.625 216.32,172.642 214.634,162.951L214.637,162.953Z" style="fill:rgb(62,142,24);"/>
            <path id="path9014" d="M214.637,162.953L216.294,163.096C216.294,163.096 239.621,164.055 247.679,170.178C250.918,172.639 253.409,176.551 254.767,180.151C255.447,181.951 255.846,183.668 255.836,185.188C255.827,186.077 255.572,186.918 255.146,187.65C256.686,189.461 258.058,191.423 259.064,193.725L259.055,193.725C259.055,193.735 259.07,193.745 259.074,193.754L256.714,194.75C256.697,194.71 256.669,194.679 256.652,194.64C255.629,192.882 254.224,191.046 253.051,189.501C250.343,191.273 246.724,192.187 242.772,192.186C238.271,192.186 233.389,191.036 229.176,188.508C220.157,181.625 216.32,172.642 214.634,162.951L214.637,162.953ZM230.873,186.69C234.503,189.137 238.714,189.627 242.776,189.628C246.243,189.628 249.331,188.802 251.471,187.49C245.954,182.154 238.017,178.446 230.504,173.361C243.128,178.564 251.023,183.487 253.219,185.566C253.325,184.044 252.822,182.266 252.372,181.055C251.17,177.869 248.808,174.254 246.129,172.218C239.403,167.108 227.662,165.566 216.471,164.657C219.888,174.672 222.801,181.08 230.873,186.69Z" style="fill:rgb(57,25,16);"/>
            <path id="path9016" d="M354.28,145.526L352.861,146.253C352.861,146.253 332.489,155.544 327.547,163.897C325.56,167.254 324.763,171.631 324.859,175.32C324.907,177.164 325.173,178.834 325.732,180.18C326.061,180.966 326.592,181.621 327.235,182.117C326.523,184.282 326.014,186.522 325.953,188.93L325.961,188.93C325.964,188.939 325.956,188.954 325.955,188.963L328.411,188.993C328.412,188.952 328.425,188.914 328.426,188.873C328.699,186.942 329.283,184.802 329.766,183.006C332.812,183.6 336.357,183.103 339.867,181.673C343.865,180.044 347.785,177.256 350.612,173.486C356.132,164.11 356.291,154.744 354.282,145.526L354.28,145.526Z" style="fill:rgb(62,142,24);"/>
            <path id="path9018" d="M354.28,145.526L352.861,146.253C352.861,146.253 332.489,155.544 327.547,163.897C325.56,167.254 324.763,171.631 324.859,175.32C324.907,177.164 325.173,178.834 325.732,180.18C326.061,180.966 326.592,181.621 327.235,182.117C326.523,184.282 326.014,186.522 325.953,188.93L325.961,188.93C325.964,188.939 325.956,188.954 325.955,188.963L328.411,188.993C328.412,188.952 328.425,188.914 328.426,188.873C328.699,186.942 329.283,184.802 329.766,183.006C332.812,183.6 336.357,183.103 339.867,181.673C343.865,180.044 347.785,177.256 350.612,173.486C356.132,164.11 356.291,154.744 354.282,145.526L354.28,145.526ZM348.447,172.483C346.108,175.97 342.545,177.928 338.938,179.398C335.859,180.653 332.817,181.036 330.442,180.645C333.411,173.91 339.12,167.745 343.953,160.511C334.623,169.699 329.392,176.927 328.193,179.569C327.548,178.256 327.352,176.494 327.313,175.255C327.229,171.991 328.018,167.926 329.662,165.148C333.787,158.176 343.657,152.559 353.268,147.703C353.856,157.834 353.587,164.579 348.447,172.483Z" style="fill:rgb(57,25,16);"/>
            <path id="path9020" d="M166.628,147.924L168.048,148.651C168.048,148.651 188.419,157.942 193.362,166.295C195.348,169.653 196.145,174.029 196.049,177.718C196.002,179.563 195.735,181.232 195.176,182.578C194.847,183.365 194.316,184.019 193.673,184.515C194.385,186.681 194.894,188.92 194.955,191.328L194.947,191.328C194.944,191.337 194.952,191.352 194.953,191.362L192.497,191.391C192.496,191.35 192.483,191.312 192.482,191.271C192.209,189.341 191.625,187.201 191.142,185.405C188.097,185.999 184.551,185.502 181.042,184.071C177.044,182.443 173.124,179.655 170.296,175.885C164.776,166.509 164.617,157.142 166.626,147.925L166.628,147.924Z" style="fill:rgb(62,142,24);"/>
            <path id="path9022" d="M166.628,147.924L168.048,148.651C168.048,148.651 188.419,157.942 193.362,166.295C195.348,169.653 196.145,174.029 196.049,177.718C196.002,179.563 195.735,181.232 195.176,182.578C194.847,183.365 194.316,184.019 193.673,184.515C194.385,186.681 194.894,188.92 194.955,191.328L194.947,191.328C194.944,191.337 194.952,191.352 194.953,191.362L192.497,191.391C192.496,191.35 192.483,191.312 192.482,191.271C192.209,189.341 191.625,187.201 191.142,185.405C188.097,185.999 184.551,185.502 181.042,184.071C177.044,182.443 173.124,179.655 170.296,175.885C164.776,166.509 164.617,157.142 166.626,147.925L166.628,147.924ZM172.461,174.881C174.8,178.368 178.363,180.326 181.97,181.797C185.049,183.051 188.092,183.435 190.467,183.043C187.497,176.308 181.789,170.143 176.955,162.909C186.285,172.097 191.517,179.326 192.715,181.968C193.36,180.654 193.557,178.893 193.595,177.654C193.68,174.389 192.89,170.324 191.247,167.546C187.121,160.574 177.252,154.958 167.64,150.101C167.052,160.233 167.321,166.978 172.461,174.881Z" style="fill:rgb(57,25,16);"/>
            <path id="path9024" d="M171.466,217.616L172.768,216.695C172.768,216.695 190.443,202.95 200.136,202.442C204.031,202.238 208.278,203.56 211.503,205.355C213.115,206.252 214.471,207.262 215.405,208.381C215.949,209.037 216.283,209.811 216.424,210.611C218.674,210.983 220.894,211.57 223.056,212.632L223.05,212.641C223.056,212.65 223.073,212.65 223.082,212.651L221.971,214.842C221.934,214.824 221.894,214.817 221.857,214.799C220.02,214.146 217.853,213.672 216.038,213.267C215.153,216.241 213.069,219.153 210.174,221.599C206.878,224.387 202.591,226.569 197.94,227.327C187.073,227.872 178.7,223.672 171.464,217.62L171.466,217.616Z" style="fill:rgb(62,142,24);"/>
            <path id="path9026" d="M171.466,217.616L172.768,216.695C172.768,216.695 190.443,202.95 200.136,202.442C204.031,202.238 208.278,203.56 211.503,205.355C213.115,206.252 214.471,207.262 215.405,208.381C215.949,209.037 216.283,209.811 216.424,210.611C218.674,210.983 220.894,211.57 223.056,212.632L223.05,212.641C223.056,212.65 223.073,212.65 223.082,212.651L221.971,214.842C221.934,214.824 221.894,214.817 221.857,214.799C220.02,214.146 217.853,213.672 216.038,213.267C215.153,216.241 213.069,219.153 210.174,221.599C206.878,224.387 202.591,226.569 197.94,227.327C187.073,227.872 178.7,223.672 171.464,217.62L171.466,217.616ZM198.056,224.942C202.23,224.485 205.617,222.235 208.592,219.721C211.13,217.574 212.88,215.056 213.634,212.77C206.29,212.28 198.181,214.48 189.531,215.41C201.997,211.401 210.827,210.116 213.723,210.278C212.858,209.098 211.388,208.108 210.309,207.5C207.455,205.911 203.487,204.727 200.264,204.896C192.174,205.32 182.622,211.462 173.864,217.728C182.569,222.945 188.671,225.833 198.056,224.942Z" style="fill:rgb(57,25,16);"/>
            <path id="path9028" d="M346.174,218.417L344.872,217.496C344.872,217.496 327.197,203.751 317.505,203.243C313.609,203.039 309.362,204.362 306.137,206.156C304.525,207.053 303.169,208.063 302.235,209.182C301.691,209.839 301.357,210.612 301.216,211.412C298.967,211.785 296.746,212.372 294.584,213.434L294.59,213.443C294.584,213.452 294.567,213.452 294.558,213.453L295.67,215.643C295.707,215.625 295.746,215.619 295.783,215.601C297.621,214.948 299.787,214.473 301.603,214.069C302.488,217.043 304.572,219.954 307.466,222.401C310.762,225.189 315.049,227.37 319.7,228.129C330.567,228.674 338.94,224.473 346.177,218.421L346.174,218.417Z" style="fill:rgb(62,142,24);"/>
            <path id="path9030" d="M346.174,218.417L344.872,217.496C344.872,217.496 327.197,203.751 317.505,203.243C313.609,203.039 309.362,204.362 306.137,206.156C304.525,207.053 303.169,208.063 302.235,209.182C301.691,209.839 301.357,210.612 301.216,211.412C298.967,211.785 296.746,212.372 294.584,213.434L294.59,213.443C294.584,213.452 294.567,213.452 294.558,213.453L295.67,215.643C295.707,215.625 295.746,215.619 295.783,215.601C297.621,214.948 299.787,214.473 301.603,214.069C302.488,217.043 304.572,219.954 307.466,222.401C310.762,225.189 315.049,227.37 319.7,228.129C330.567,228.674 338.94,224.473 346.177,218.421L346.174,218.417ZM319.584,225.743C315.41,225.286 312.023,223.037 309.049,220.522C306.51,218.375 304.76,215.857 304.006,213.571C311.35,213.081 319.459,215.282 328.109,216.212C315.644,212.203 306.813,210.918 303.917,211.08C304.782,209.9 306.252,208.909 307.332,208.301C310.185,206.713 314.153,205.528 317.376,205.697C325.467,206.121 335.018,212.264 343.776,218.529C335.071,223.747 328.97,226.635 319.584,225.743Z" style="fill:rgb(57,25,16);"/>
            <path id="path9032" d="M136.822,309.562L137.093,307.99C137.093,307.99 139.901,285.776 146.405,278.572C149.019,275.677 152.96,273.614 156.511,272.607C158.286,272.104 159.959,271.862 161.41,271.995C162.259,272.075 163.042,272.387 163.707,272.854C165.562,271.529 167.549,270.377 169.83,269.602L169.829,269.611C169.839,269.612 169.85,269.599 169.859,269.595L170.619,271.931C170.58,271.944 170.547,271.968 170.509,271.981C168.746,272.816 166.877,274.01 165.306,275.006C166.78,277.737 167.36,281.27 167.039,285.046C166.674,289.347 165.179,293.919 162.421,297.741C155.112,305.801 146.217,308.74 136.82,309.565L136.822,309.562Z" style="fill:rgb(62,142,24);"/>
            <path id="path9034" d="M136.822,309.562L137.093,307.99C137.093,307.99 139.901,285.776 146.405,278.572C149.019,275.677 152.96,273.614 156.511,272.607C158.286,272.104 159.959,271.862 161.41,271.995C162.259,272.075 163.042,272.387 163.707,272.854C165.562,271.529 167.549,270.377 169.83,269.602L169.829,269.611C169.839,269.612 169.85,269.599 169.859,269.595L170.619,271.931C170.58,271.944 170.547,271.968 170.509,271.981C168.746,272.816 166.877,274.01 165.306,275.006C166.78,277.737 167.36,281.27 167.039,285.046C166.674,289.347 165.179,293.919 162.421,297.741C155.112,305.801 146.217,308.74 136.82,309.565L136.822,309.562ZM160.822,295.971C163.454,292.7 164.264,288.716 164.594,284.835C164.876,281.522 164.336,278.503 163.256,276.353C157.71,281.192 153.523,288.476 148.055,295.243C154.05,283.602 159.394,276.456 161.56,274.526C160.114,274.301 158.374,274.638 157.18,274.969C154.038,275.86 150.392,277.824 148.229,280.219C142.8,286.232 140.375,297.327 138.599,307.948C148.446,305.494 154.806,303.23 160.822,295.971Z" style="fill:rgb(57,25,16);"/>
            <path id="path9036" d="M87.167,257.262L88.685,256.775C88.685,256.775 109.677,248.986 119.073,251.418C122.85,252.396 126.502,254.935 129.037,257.617C130.305,258.958 131.294,260.329 131.848,261.677C132.169,262.467 132.255,263.305 132.149,264.11C134.182,265.142 136.122,266.37 137.865,268.034L137.857,268.034C137.86,268.043 137.877,268.047 137.884,268.053L136.165,269.808C136.135,269.779 136.1,269.761 136.07,269.733C134.514,268.558 132.59,267.453 130.981,266.521C129.242,269.091 126.378,271.241 122.882,272.703C118.9,274.37 114.155,275.16 109.491,274.483C98.964,271.734 92.243,265.208 87.163,257.259L87.167,257.262Z" style="fill:rgb(62,142,24);"/>
            <path id="path9038" d="M87.167,257.262L88.685,256.775C88.685,256.775 109.677,248.986 119.073,251.418C122.85,252.396 126.502,254.935 129.037,257.617C130.305,258.958 131.294,260.329 131.848,261.677C132.169,262.467 132.255,263.305 132.149,264.11C134.182,265.142 136.122,266.37 137.865,268.034L137.857,268.034C137.86,268.043 137.877,268.047 137.884,268.053L136.165,269.808C136.135,269.779 136.1,269.761 136.07,269.733C134.514,268.558 132.59,267.453 130.981,266.521C129.242,269.091 126.378,271.241 122.882,272.703C118.9,274.37 114.155,275.16 109.491,274.483C98.964,271.734 92.243,265.208 87.163,257.259L87.167,257.262ZM110.32,272.25C114.438,273.07 118.344,271.944 121.938,270.441C125.005,269.157 127.431,267.283 128.838,265.33C121.982,262.652 113.587,262.311 105.058,260.595C118.152,260.523 126.96,261.954 129.673,262.981C129.203,261.595 128.099,260.208 127.253,259.303C125.009,256.93 121.582,254.606 118.457,253.797C110.614,251.767 99.657,254.751 89.42,258.09C96.151,265.685 101.101,270.275 110.32,272.25Z" style="fill:rgb(57,25,16);"/>
            <path id="path9048" d="M381.203,308.053L380.931,306.482C380.931,306.482 378.123,284.268 371.619,277.064C369.005,274.168 365.064,272.105 361.514,271.099C359.739,270.595 358.066,270.353 356.614,270.486C355.765,270.566 354.983,270.878 354.318,271.345C352.462,270.02 350.475,268.868 348.195,268.093L348.195,268.102C348.185,268.103 348.175,268.09 348.165,268.087L347.406,270.423C347.445,270.435 347.477,270.459 347.516,270.472C349.278,271.308 351.147,272.502 352.718,273.497C351.245,276.228 350.664,279.761 350.986,283.537C351.351,287.839 352.846,292.411 355.603,296.232C362.912,304.292 371.807,307.231 381.205,308.056L381.203,308.053Z" style="fill:rgb(62,142,24);"/>
            <path id="path9050" d="M381.203,308.053L380.931,306.482C380.931,306.482 378.123,284.268 371.619,277.064C369.005,274.168 365.064,272.105 361.514,271.099C359.739,270.595 358.066,270.353 356.614,270.486C355.765,270.566 354.983,270.878 354.318,271.345C352.462,270.02 350.475,268.868 348.195,268.093L348.195,268.102C348.185,268.103 348.175,268.09 348.165,268.087L347.406,270.423C347.445,270.435 347.477,270.459 347.516,270.472C349.278,271.308 351.147,272.502 352.718,273.497C351.245,276.228 350.664,279.761 350.986,283.537C351.351,287.839 352.846,292.411 355.603,296.232C362.912,304.292 371.807,307.231 381.205,308.056L381.203,308.053ZM357.203,294.463C354.57,291.192 353.761,287.208 353.43,283.326C353.149,280.013 353.688,276.995 354.769,274.844C360.315,279.683 364.502,286.967 369.97,293.735C363.975,282.093 358.63,274.948 356.465,273.017C357.911,272.792 359.651,273.129 360.845,273.461C363.987,274.352 367.633,276.315 369.796,278.711C375.225,284.724 377.649,295.818 379.426,306.439C369.578,303.986 363.219,301.722 357.203,294.463Z" style="fill:rgb(57,25,16);"/>
            <path id="path9056" d="M156.595,263.998C153.301,263.805 150.025,264.01 146.773,264.692C133.766,267.416 121.718,277.757 111.098,299.07C115.511,291.209 132.334,272.43 147.647,268.868C159.064,266.477 169.409,270.522 182.387,277.978C183.259,276.468 183.886,275.248 184.757,273.951C174.725,268.188 166.478,264.579 156.595,263.998Z" style="fill:rgb(57,25,16);"/>
            <path id="path9058" d="M363.593,262.918C366.887,262.725 370.163,262.93 373.415,263.612C386.422,266.336 398.47,276.677 409.09,297.99C404.677,290.129 387.854,271.35 372.541,267.788C361.124,265.397 349.39,269.36 336.412,276.816C335.701,275.708 335.254,274.74 334.123,273.198C344.155,267.435 353.71,263.499 363.593,262.918Z" style="fill:rgb(57,25,16);"/>
            <path id="path9060" d="M149.643,178.838C158.597,189.776 191.402,191.802 203.76,197.987C215.574,204.133 222.438,211.532 234.296,236.411C235.519,235.966 236.862,235.633 238.162,235.242C226.172,210.085 218.593,200.893 205.73,194.202C192.867,187.51 172.569,189.293 149.643,178.838Z" style="fill:rgb(57,25,16);"/>
            <path id="path9062" d="M370.708,176.403C361.754,187.341 328.95,189.367 316.591,195.551C304.777,201.698 296.839,211.433 284.982,236.313C283.74,235.795 282.343,235.432 280.885,235.131C292.875,209.975 301.759,198.458 314.621,191.766C327.484,185.075 347.782,186.858 370.708,176.403Z" style="fill:rgb(57,25,16);"/>
            <path id="path9064" d="M258.435,130.783C263.239,165.991 251.293,197.395 257.525,232.667L261.726,232.658C256.296,216.419 266.663,139.243 258.435,130.78L258.435,130.783Z" style="fill:rgb(57,25,16);"/>
            <path id="path9066" d="M171.224,321.975C171.224,365.026 199.556,398.422 241.254,409.651C241.254,409.651 233.065,480.223 219.136,480.204L299.054,479.842C286.074,480.236 277.948,409.651 277.948,409.651C317.681,398.603 348.376,365.169 348.376,321.975C317.535,430.169 198.833,427.047 171.224,321.975Z" style="fill:rgb(57,25,16);fill-rule:nonzero;"/>
            <path id="path9068" d="M121.803,288.353C113.231,281.893 98.642,281.743 90.622,289.478C77.945,301.705 76.141,304.259 69.527,311.29C61.972,319.322 53.841,322.279 49.48,327.786C46.185,331.088 48.024,337.28 52.653,335.838C57.469,334.146 71.802,321.376 73.271,324.747C74.74,328.118 51.833,342.195 46.977,350.141C44.235,356.224 45.044,360.829 51.894,357.166C59.601,353.042 75.987,335 78.361,338.717C80.735,342.435 58.775,358.816 56.847,369.129C55.239,376.336 59.715,377.353 64.056,374.282C70.164,369.956 84.328,346.928 88.423,348.717C92.517,350.507 80.565,367.753 78.417,375.792C76.987,383.041 82.05,385.222 86.238,380.455C93.765,371.659 98.92,357.369 106.191,346.876C108.285,343.854 111.253,335.379 114.925,335.208C116.873,335.117 118.553,337.076 119.602,338.719C121.441,347.32 121.514,350.046 122.743,353.448C126.831,361.022 132.629,358.075 133.748,353.885C135.083,348.545 129.224,337.213 130.024,328.931C131.409,314.61 136.386,299.344 121.803,288.353L121.803,288.353Z" style="fill:rgb(62,142,24);stroke:rgb(57,25,16);stroke-width:1.71px;"/>
            <path id="path9070" d="M157.122,183.278C163.491,174.637 163.485,160.047 155.664,152.11C143.302,139.565 140.73,137.788 133.628,131.25C125.515,123.781 122.472,115.682 116.918,111.38C113.581,108.12 107.41,110.025 108.901,114.639C110.645,119.436 123.567,133.633 120.212,135.137C116.856,136.642 102.536,113.887 94.538,109.115C88.426,106.439 83.83,107.297 87.566,114.107C91.773,121.77 109.988,137.962 106.296,140.376C102.605,142.79 85.99,121.006 75.657,119.188C68.433,117.658 67.464,122.143 70.581,126.452C74.972,132.513 98.15,146.431 96.405,150.544C94.659,154.657 77.286,142.89 69.224,140.828C61.961,139.475 59.834,144.561 64.646,148.699C73.522,156.131 87.866,161.133 98.436,168.292C101.48,170.353 109.986,173.23 110.197,176.901C110.308,178.847 108.367,180.548 106.735,181.615C98.155,183.546 95.429,183.648 92.041,184.913C84.512,189.082 87.52,194.848 91.722,195.922C97.076,197.2 108.344,191.22 116.634,191.932C130.969,193.164 146.288,197.977 157.122,183.278L157.122,183.278Z" style="fill:rgb(62,142,24);stroke:rgb(57,25,16);stroke-width:1.71px;"/>
            <path id="path9072" d="M401.886,285.564C392.029,289.813 384.675,302.414 387.425,313.212C391.772,330.279 393.097,333.112 395.931,342.339C399.17,352.88 397.712,361.408 400.339,367.924C401.576,372.422 407.866,373.89 408.905,369.154C409.819,364.132 405.821,345.356 409.477,345.749C413.133,346.142 414.022,373.013 418.521,381.167C422.449,386.561 426.851,388.139 427.059,380.373C427.292,371.635 419.73,348.466 424.135,348.244C428.54,348.021 431.9,375.212 439.905,381.993C445.371,386.958 448.47,383.573 447.952,378.281C447.217,370.832 434.223,347.124 437.805,344.453C441.387,341.782 450.453,360.705 456.374,366.551C461.965,371.382 466.366,368.064 464.298,362.064C460.382,351.17 450.519,339.616 445.003,328.103C443.414,324.788 437.52,318.013 439.189,314.738C440.075,313.001 442.609,312.511 444.556,312.413C452.939,315.074 455.344,316.36 458.908,316.977C467.512,317.175 467.822,310.679 464.736,307.631C460.757,303.827 448.011,303.308 441.212,298.512C429.455,290.218 418.655,278.336 401.887,285.564L401.886,285.564Z" style="fill:rgb(62,142,24);stroke:rgb(57,25,16);stroke-width:1.71px;"/>
            <path id="path9074" d="M367.695,180.187C373.406,189.276 386.986,194.61 397.235,190.236C413.433,183.323 416.029,181.578 424.712,177.362C434.631,172.545 443.282,172.677 449.318,169.082C453.573,167.17 454.059,160.729 449.219,160.429C444.117,160.296 426.176,167.127 426.004,163.453C425.831,159.78 452.248,154.78 459.616,149.083C464.343,144.374 465.227,139.783 457.521,140.768C448.851,141.879 427.116,152.905 426.22,148.586C425.325,144.267 451.678,136.776 457.151,127.826C461.219,121.663 457.399,119.12 452.249,120.444C445.001,122.312 423.567,138.789 420.377,135.66C417.188,132.53 434.497,120.669 439.366,113.92C443.282,107.655 439.328,103.815 433.716,106.779C423.552,112.32 413.647,123.839 403.117,131.055C400.085,133.134 394.295,139.997 390.802,138.85C388.949,138.242 388.077,135.813 387.681,133.904C389.024,125.212 389.927,122.638 389.989,119.022C388.865,110.489 382.398,111.179 379.86,114.696C376.712,119.211 378.154,131.887 374.457,139.341C368.065,152.23 357.98,164.725 367.695,180.187L367.695,180.187Z" style="fill:rgb(62,142,24);stroke:rgb(57,25,16);stroke-width:1.71px;"/>
            <path id="path9076" d="M261.113,138.422C271.651,136.378 281.528,125.64 281.15,114.504C280.553,96.902 279.863,93.852 279.067,84.232C278.157,73.242 281.404,65.223 280.231,58.296C279.984,53.638 274.153,50.859 272.126,55.264C270.159,59.974 270.051,79.17 266.563,78.005C263.075,76.839 267.952,50.399 265.299,41.472C262.616,35.363 258.653,32.881 256.789,40.423C254.694,48.909 257.128,73.159 252.777,72.435C248.427,71.71 250.957,44.43 244.587,36.094C240.308,30.075 236.557,32.72 235.932,38C235.057,45.434 242.683,71.372 238.613,73.215C234.543,75.059 229.732,54.635 225.197,47.658C220.769,41.744 215.76,44.045 216.498,50.348C217.994,61.827 225.159,75.223 228.087,87.648C228.93,91.227 233.24,99.105 230.909,101.948C229.672,103.455 227.092,103.392 225.169,103.071C217.549,98.68 215.474,96.909 212.124,95.545C203.762,93.513 202.07,99.792 204.433,103.428C207.507,107.995 219.848,111.227 225.464,117.366C235.176,127.981 243.186,141.898 261.112,138.422L261.113,138.422Z" style="fill:rgb(62,142,24);stroke:rgb(57,25,16);stroke-width:1.71px;"/>
            <path id="path11013" d="M198.786,305.029L202.047,305.029L202.047,318.095L213.896,318.095L213.896,305.029L217.157,305.029L217.157,336.905L213.896,336.905L213.896,321.725L202.047,321.725L202.047,336.905L198.786,336.905L198.786,305.029Z" style="fill:rgb(57,25,16);fill-rule:nonzero;stroke:rgb(57,25,16);stroke-width:0.77px;"/>
            <path id="path11015" d="M223.276,333.446C223.631,332.976 224.05,332.741 224.535,332.741C225.019,332.741 225.439,332.976 225.794,333.446C226.149,333.916 226.327,334.471 226.327,335.111C226.327,335.766 226.149,336.335 225.794,336.819C225.439,337.289 225.019,337.524 224.535,337.524C224.061,337.524 223.641,337.282 223.276,336.798C222.92,336.3 222.743,335.737 222.743,335.111C222.743,334.471 222.92,333.916 223.276,333.446Z" style="fill:rgb(57,25,16);fill-rule:nonzero;stroke:rgb(57,25,16);stroke-width:0.77px;"/>
            <path id="path11017" d="M247.249,323.966L247.249,325.888L233.591,325.888C233.72,328.592 234.334,330.656 235.432,332.079C236.54,333.489 238.079,334.193 240.049,334.193C241.189,334.193 242.292,334.008 243.358,333.638C244.434,333.268 245.5,332.713 246.554,331.973L246.554,335.688C245.489,336.285 244.397,336.741 243.277,337.054C242.158,337.367 241.023,337.524 239.871,337.524C236.987,337.524 234.7,336.414 233.01,334.193C231.331,331.973 230.492,328.969 230.492,325.183C230.492,321.269 231.288,318.166 232.881,315.875C234.484,313.569 236.642,312.416 239.354,312.416C241.787,312.416 243.708,313.455 245.118,315.533C246.538,317.597 247.249,320.408 247.249,323.966ZM244.278,322.813C244.257,320.664 243.799,318.949 242.906,317.668C242.023,316.387 240.85,315.747 239.387,315.747C237.729,315.747 236.4,316.366 235.399,317.604C234.409,318.842 233.839,320.586 233.688,322.835L244.278,322.813Z" style="fill:rgb(57,25,16);fill-rule:nonzero;stroke:rgb(57,25,16);stroke-width:0.77px;"/>
            <path id="path11019" d="M251.882,333.446C252.237,332.976 252.657,332.741 253.141,332.741C253.625,332.741 254.045,332.976 254.4,333.446C254.755,333.916 254.933,334.471 254.933,335.111C254.933,335.766 254.755,336.335 254.4,336.819C254.045,337.289 253.625,337.524 253.141,337.524C252.667,337.524 252.248,337.282 251.882,336.798C251.527,336.3 251.349,335.737 251.349,335.111C251.349,334.471 251.527,333.916 251.882,333.446Z" style="fill:rgb(57,25,16);fill-rule:nonzero;stroke:rgb(57,25,16);stroke-width:0.77px;"/>
            <rect id="path11021" x="260.389" y="303.684" width="2.97" height="33.221" style="fill:rgb(57,25,16);fill-rule:nonzero;stroke:rgb(57,25,16);stroke-width:0.77px;"/>
            <path id="path11023" d="M269.333,333.446C269.688,332.976 270.108,332.741 270.592,332.741C271.076,332.741 271.496,332.976 271.851,333.446C272.206,333.916 272.384,334.471 272.384,335.111C272.384,335.766 272.206,336.335 271.851,336.819C271.496,337.289 271.076,337.524 270.592,337.524C270.118,337.524 269.699,337.282 269.333,336.798C268.978,336.3 268.8,335.737 268.8,335.111C268.8,334.471 268.978,333.916 269.333,333.446Z" style="fill:rgb(57,25,16);fill-rule:nonzero;stroke:rgb(57,25,16);stroke-width:0.77px;"/>
            <path id="path11025" d="M286.994,303.684L286.994,306.95L284.152,306.95C283.087,306.95 282.344,307.235 281.925,307.804C281.516,308.374 281.311,309.398 281.311,310.879L281.311,312.992L286.203,312.992L286.203,316.045L281.311,316.045L281.311,336.905L278.325,336.905L278.325,316.045L275.483,316.045L275.483,312.992L278.325,312.992L278.325,311.327C278.325,308.665 278.793,306.73 279.729,305.52C280.665,304.296 282.151,303.684 284.185,303.684L286.994,303.684Z" style="fill:rgb(57,25,16);fill-rule:nonzero;stroke:rgb(57,25,16);stroke-width:0.77px;"/>
            <path id="path11027" d="M289.238,333.446C289.593,332.976 290.013,332.741 290.497,332.741C290.981,332.741 291.401,332.976 291.756,333.446C292.111,333.916 292.289,334.471 292.289,335.111C292.289,335.766 292.111,336.335 291.756,336.819C291.401,337.289 290.981,337.524 290.497,337.524C290.023,337.524 289.604,337.282 289.238,336.798C288.882,336.3 288.705,335.737 288.705,335.111C288.705,334.471 288.882,333.916 289.238,333.446Z" style="fill:rgb(57,25,16);fill-rule:nonzero;stroke:rgb(57,25,16);stroke-width:0.77px;"/>
            <path id="path11029" d="M305.962,324.884C303.562,324.884 301.899,325.247 300.974,325.973C300.048,326.699 299.586,327.937 299.586,329.688C299.586,331.083 299.93,332.193 300.619,333.019C301.318,333.83 302.265,334.236 303.46,334.236C305.107,334.236 306.425,333.467 307.415,331.93C308.416,330.379 308.916,328.322 308.916,325.76L308.916,324.884L305.962,324.884ZM311.887,323.262L311.887,336.905L308.916,336.905L308.916,333.275C308.238,334.727 307.394,335.801 306.382,336.499C305.37,337.182 304.133,337.524 302.669,337.524C300.818,337.524 299.343,336.841 298.246,335.474C297.159,334.093 296.615,332.25 296.615,329.944C296.615,327.254 297.293,325.226 298.649,323.86C300.016,322.493 302.05,321.81 304.751,321.81L308.916,321.81L308.916,321.426C308.916,319.618 308.464,318.223 307.56,317.241C306.667,316.245 305.408,315.747 303.783,315.747C302.75,315.747 301.743,315.91 300.764,316.238C299.785,316.565 298.843,317.056 297.939,317.711L297.939,314.081C299.026,313.526 300.081,313.113 301.103,312.843C302.125,312.558 303.121,312.416 304.09,312.416C306.705,312.416 308.658,313.313 309.95,315.106C311.241,316.899 311.887,319.618 311.887,323.262Z" style="fill:rgb(57,25,16);fill-rule:nonzero;stroke:rgb(57,25,16);stroke-width:0.77px;"/>
            <path id="path11031" d="M317.763,333.446C318.118,332.976 318.538,332.741 319.022,332.741C319.507,332.741 319.926,332.976 320.281,333.446C320.637,333.916 320.814,334.471 320.814,335.111C320.814,335.766 320.637,336.335 320.281,336.819C319.926,337.289 319.507,337.524 319.022,337.524C318.549,337.524 318.129,337.282 317.763,336.798C317.408,336.3 317.23,335.737 317.23,335.111C317.23,334.471 317.408,333.916 317.763,333.446Z" style="fill:rgb(57,25,16);fill-rule:nonzero;stroke:rgb(57,25,16);stroke-width:0.77px;"/>
            <path id="path9184" d="M127.276,210.238L128.847,210.509C128.847,210.509 151.061,213.317 158.265,219.821C161.161,222.435 163.224,226.376 164.23,229.927C164.733,231.702 164.976,233.375 164.843,234.826C164.763,235.675 164.451,236.458 163.984,237.123C165.308,238.978 166.461,240.965 167.236,243.246L167.227,243.245C167.226,243.255 167.239,243.266 167.242,243.275L164.906,244.034C164.893,243.995 164.869,243.963 164.856,243.924C164.021,242.162 162.827,240.293 161.831,238.722C159.1,240.196 155.567,240.776 151.791,240.455C147.49,240.09 142.918,238.594 139.096,235.837C131.036,228.528 128.098,219.633 127.272,210.236L127.276,210.238Z" style="fill:rgb(62,142,24);"/>
            <path id="path9186" d="M127.276,210.238L128.847,210.509C128.847,210.509 151.061,213.317 158.265,219.821C161.161,222.435 163.224,226.376 164.23,229.927C164.733,231.702 164.976,233.375 164.843,234.826C164.763,235.675 164.451,236.458 163.984,237.123C165.308,238.978 166.461,240.965 167.236,243.246L167.227,243.245C167.226,243.255 167.239,243.266 167.242,243.275L164.906,244.034C164.893,243.995 164.869,243.963 164.856,243.924C164.021,242.162 162.827,240.293 161.831,238.722C159.1,240.196 155.567,240.776 151.791,240.455C147.49,240.09 142.918,238.594 139.096,235.837C131.036,228.528 128.098,219.633 127.272,210.236L127.276,210.238ZM140.866,234.238C144.137,236.87 148.121,237.68 152.002,238.01C155.315,238.291 158.334,237.752 160.485,236.672C155.646,231.126 148.361,226.938 141.594,221.471C153.236,227.466 160.381,232.81 162.311,234.976C162.536,233.53 162.2,231.79 161.868,230.596C160.977,227.454 159.014,223.808 156.618,221.645C150.605,216.216 139.511,213.791 128.89,212.014C131.343,221.862 133.607,228.222 140.866,234.238Z" style="fill:rgb(57,25,16);"/>
            <path id="path9190" d="M56.131,197.122L56.691,198.615C56.691,198.615 63.605,219.911 71.342,225.772C74.451,228.127 78.709,229.416 82.385,229.741C84.223,229.903 85.912,229.829 87.312,229.426C88.131,229.189 88.842,228.736 89.408,228.153C91.478,229.107 93.646,229.867 96.031,230.202L96.03,230.192C96.04,230.188 96.051,230.203 96.063,230.201L96.372,227.764C96.331,227.759 96.295,227.741 96.254,227.736C94.367,227.245 92.308,226.421 90.578,225.737C91.515,222.778 91.424,219.199 90.402,215.55C89.239,211.393 86.915,207.181 83.491,203.943C74.804,197.392 65.516,196.17 56.13,197.117L56.131,197.122Z" style="fill:rgb(62,142,24);"/>
            <path id="path9192" d="M56.131,197.122L56.691,198.615C56.691,198.615 63.605,219.911 71.342,225.772C74.451,228.127 78.709,229.416 82.385,229.741C84.223,229.903 85.912,229.829 87.312,229.426C88.131,229.189 88.842,228.736 89.408,228.153C91.478,229.107 93.646,229.867 96.031,230.202L96.03,230.192C96.04,230.188 96.051,230.203 96.063,230.201L96.372,227.764C96.331,227.759 96.295,227.741 96.254,227.736C94.367,227.245 92.308,226.421 90.578,225.737C91.515,222.778 91.424,219.199 90.402,215.55C89.239,211.393 86.915,207.181 83.491,203.943C74.804,197.392 65.516,196.17 56.13,197.117L56.131,197.122ZM82.249,205.983C85.447,208.704 86.988,212.466 88.038,216.217C88.934,219.419 88.969,222.485 88.31,224.8C81.957,221.084 76.481,214.711 69.844,209.087C77.911,219.401 84.498,225.421 86.986,226.912C85.607,227.403 83.835,227.398 82.6,227.295C79.347,227.008 75.398,225.761 72.825,223.813C66.367,218.921 61.91,208.477 58.178,198.375C68.311,198.943 74.981,199.977 82.249,205.983Z" style="fill:rgb(57,25,16);"/>
            <path id="path9194" d="M88.573,225.169L87.586,227.623C88.099,229.262 93.778,229.063 107.569,238.209C118.741,245.618 132.057,247.423 145.074,247.577C158.091,247.732 170.977,246.133 181.602,246.114C192.228,246.095 199.61,247.01 203.732,252.587C204.756,251.779 205.923,250.849 207.164,250.052C201.743,242.718 192.632,241.828 181.594,241.848C170.556,241.867 157.753,243.461 145.124,243.311C132.495,243.161 122.248,243.302 109.891,234.844C93.236,224.879 88.573,225.169 88.573,225.169Z" style="fill:rgb(57,25,16);"/>
        </g>
    </g>
    <g transform="matrix(7.80886,0,0,7.80886,-3388.07,-1181.54)">
        <g id="path110131" serif:id="path11013" transform="matrix(0.562942,0,0,0.562942,358.871,-10.8017)">
            <path d="M198.786,305.029L202.047,305.029L202.047,318.095L213.896,318.095L213.896,305.029L217.157,305.029L217.157,336.905L213.896,336.905L213.896,321.725L202.047,321.725L202.047,336.905L198.786,336.905L198.786,305.029Z" style="fill:rgb(57,25,16);fill-rule:nonzero;stroke:rgb(57,25,16);stroke-width:0.77px;"/>
        </g>
        <g id="path110151" serif:id="path11015" transform="matrix(0.562942,0,0,0.562942,358.871,-10.8017)">
            <path d="M223.276,333.446C223.631,332.976 224.05,332.741 224.535,332.741C225.019,332.741 225.439,332.976 225.794,333.446C226.149,333.916 226.327,334.471 226.327,335.111C226.327,335.766 226.149,336.335 225.794,336.819C225.439,337.289 225.019,337.524 224.535,337.524C224.061,337.524 223.641,337.282 223.276,336.798C222.92,336.3 222.743,335.737 222.743,335.111C222.743,334.471 222.92,333.916 223.276,333.446Z" style="fill:rgb(57,25,16);fill-rule:nonzero;stroke:rgb(57,25,16);stroke-width:0.77px;"/>
        </g>
        <g id="path110171" serif:id="path11017" transform="matrix(0.562942,0,0,0.562942,358.871,-10.8017)">
            <path d="M247.249,323.966L247.249,325.888L233.591,325.888C233.72,328.592 234.334,330.656 235.432,332.079C236.54,333.489 238.079,334.193 240.049,334.193C241.189,334.193 242.292,334.008 243.358,333.638C244.434,333.268 245.5,332.713 246.554,331.973L246.554,335.688C245.489,336.285 244.397,336.741 243.277,337.054C242.158,337.367 241.023,337.524 239.871,337.524C236.987,337.524 234.7,336.414 233.01,334.193C231.331,331.973 230.492,328.969 230.492,325.183C230.492,321.269 231.288,318.166 232.881,315.875C234.484,313.569 236.642,312.416 239.354,312.416C241.787,312.416 243.708,313.455 245.118,315.533C246.538,317.597 247.249,320.408 247.249,323.966ZM244.278,322.813C244.257,320.664 243.799,318.949 242.906,317.668C242.023,316.387 240.85,315.747 239.387,315.747C237.729,315.747 236.4,316.366 235.399,317.604C234.409,318.842 233.839,320.586 233.688,322.835L244.278,322.813Z" style="fill:rgb(57,25,16);fill-rule:nonzero;stroke:rgb(57,25,16);stroke-width:0.77px;"/>
        </g>
        <g id="path110191" serif:id="path11019" transform="matrix(0.562942,0,0,0.562942,358.871,-10.8017)">
            <path d="M251.882,333.446C252.237,332.976 252.657,332.741 253.141,332.741C253.625,332.741 254.045,332.976 254.4,333.446C254.755,333.916 254.933,334.471 254.933,335.111C254.933,335.766 254.755,336.335 254.4,336.819C254.045,337.289 253.625,337.524 253.141,337.524C252.667,337.524 252.248,337.282 251.882,336.798C251.527,336.3 251.349,335.737 251.349,335.111C251.349,334.471 251.527,333.916 251.882,333.446Z" style="fill:rgb(57,25,16);fill-rule:nonzero;stroke:rgb(57,25,16);stroke-width:0.77px;"/>
        </g>
        <g id="path110211" serif:id="path11021" transform="matrix(0.562942,0,0,0.562942,358.871,-10.8017)">
            <rect x="260.389" y="303.684" width="2.97" height="33.221" style="fill:rgb(57,25,16);fill-rule:nonzero;stroke:rgb(57,25,16);stroke-width:0.77px;"/>
        </g>
        <g id="path110231" serif:id="path11023" transform="matrix(0.562942,0,0,0.562942,358.871,-10.8017)">
            <path d="M269.333,333.446C269.688,332.976 270.108,332.741 270.592,332.741C271.076,332.741 271.496,332.976 271.851,333.446C272.206,333.916 272.384,334.471 272.384,335.111C272.384,335.766 272.206,336.335 271.851,336.819C271.496,337.289 271.076,337.524 270.592,337.524C270.118,337.524 269.699,337.282 269.333,336.798C268.978,336.3 268.8,335.737 268.8,335.111C268.8,334.471 268.978,333.916 269.333,333.446Z" style="fill:rgb(57,25,16);fill-rule:nonzero;stroke:rgb(57,25,16);stroke-width:0.77px;"/>
        </g>
        <g id="path110251" serif:id="path11025" transform="matrix(0.562942,0,0,0.562942,358.871,-10.8017)">
            <path d="M286.994,303.684L286.994,306.95L284.152,306.95C283.087,306.95 282.344,307.235 281.925,307.804C281.516,308.374 281.311,309.398 281.311,310.879L281.311,312.992L286.203,312.992L286.203,316.045L281.311,316.045L281.311,336.905L278.325,336.905L278.325,316.045L275.483,316.045L275.483,312.992L278.325,312.992L278.325,311.327C278.325,308.665 278.793,306.73 279.729,305.52C280.665,304.296 282.151,303.684 284.185,303.684L286.994,303.684Z" style="fill:rgb(57,25,16);fill-rule:nonzero;stroke:rgb(57,25,16);stroke-width:0.77px;"/>
        </g>
        <g id="path110271" serif:id="path11027" transform="matrix(0.562942,0,0,0.562942,358.871,-10.8017)">
            <path d="M289.238,333.446C289.593,332.976 290.013,332.741 290.497,332.741C290.981,332.741 291.401,332.976 291.756,333.446C292.111,333.916 292.289,334.471 292.289,335.111C292.289,335.766 292.111,336.335 291.756,336.819C291.401,337.289 290.981,337.524 290.497,337.524C290.023,337.524 289.604,337.282 289.238,336.798C288.882,336.3 288.705,335.737 288.705,335.111C288.705,334.471 288.882,333.916 289.238,333.446Z" style="fill:rgb(57,25,16);fill-rule:nonzero;stroke:rgb(57,25,16);stroke-width:0.77px;"/>
        </g>
        <g id="path110291" serif:id="path11029" transform="matrix(0.562942,0,0,0.562942,358.871,-10.8017)">
            <path d="M305.962,324.884C303.562,324.884 301.899,325.247 300.974,325.973C300.048,326.699 299.586,327.937 299.586,329.688C299.586,331.083 299.93,332.193 300.619,333.019C301.318,333.83 302.265,334.236 303.46,334.236C305.107,334.236 306.425,333.467 307.415,331.93C308.416,330.379 308.916,328.322 308.916,325.76L308.916,324.884L305.962,324.884ZM311.887,323.262L311.887,336.905L308.916,336.905L308.916,333.275C308.238,334.727 307.394,335.801 306.382,336.499C305.37,337.182 304.133,337.524 302.669,337.524C300.818,337.524 299.343,336.841 298.246,335.474C297.159,334.093 296.615,332.25 296.615,329.944C296.615,327.254 297.293,325.226 298.649,323.86C300.016,322.493 302.05,321.81 304.751,321.81L308.916,321.81L308.916,321.426C308.916,319.618 308.464,318.223 307.56,317.241C306.667,316.245 305.408,315.747 303.783,315.747C302.75,315.747 301.743,315.91 300.764,316.238C299.785,316.565 298.843,317.056 297.939,317.711L297.939,314.081C299.026,313.526 300.081,313.113 301.103,312.843C302.125,312.558 303.121,312.416 304.09,312.416C306.705,312.416 308.658,313.313 309.95,315.106C311.241,316.899 311.887,319.618 311.887,323.262Z" style="fill:rgb(57,25,16);fill-rule:nonzero;stroke:rgb(57,25,16);stroke-width:0.77px;"/>
        </g>
        <g id="path110311" serif:id="path11031" transform="matrix(0.562942,0,0,0.562942,358.871,-10.8017)">
            <path d="M317.763,333.446C318.118,332.976 318.538,332.741 319.022,332.741C319.507,332.741 319.926,332.976 320.281,333.446C320.637,333.916 320.814,334.471 320.814,335.111C320.814,335.766 320.637,336.335 320.281,336.819C319.926,337.289 319.507,337.524 319.022,337.524C318.549,337.524 318.129,337.282 317.763,336.798C317.408,336.3 317.23,335.737 317.23,335.111C317.23,334.471 317.408,333.916 317.763,333.446Z" style="fill:rgb(57,25,16);fill-rule:nonzero;stroke:rgb(57,25,16);stroke-width:0.77px;"/>
        </g>
    </g>
</svg>
